<?xml version="1.0" encoding="utf-8"?>
<!-- Generator: Adobe Illustrator 16.0.0, SVG Export Plug-In . SVG Version: 6.00 Build 0)  -->
<!DOCTYPE svg PUBLIC "-//W3C//DTD SVG 1.1//EN" "http://www.w3.org/Graphics/SVG/1.1/DTD/svg11.dtd">
<svg version="1.1" id="Layer_1" xmlns="http://www.w3.org/2000/svg" xmlns:xlink="http://www.w3.org/1999/xlink" x="0px" y="0px"
	 width="680.314px" height="595.276px" viewBox="0 0 680.314 595.276" enable-background="new 0 0 680.314 595.276"
	 xml:space="preserve">
<path d="M663.146,28.508h-32.22c-2.351,0-4.26,1.9-4.26,4.25v7.09c0,2.16,1.619,3.94,3.699,4.21h18.61c0.16,0,0.31,0.011,0.46,0.04
	c1.35,0.221,2.38,1.391,2.38,2.79v38.101c1.12,1.6,1.78,3.56,1.78,5.67c0,2.109-0.66,4.06-1.78,5.67v143.319
	c0,1.561-1.27,2.83-2.84,2.83h-42.63c-1.65,1.23-3.7,1.971-5.92,1.971c-2.221,0-4.26-0.74-5.92-1.971h-67.46
	c-1.65,1.23-3.7,1.971-5.92,1.971c-2.221,0-4.261-0.74-5.921-1.971h-13.63c-1.56,0-2.83-1.27-2.83-2.83V92.638
	c-1.13-1.609-1.79-3.56-1.79-5.67c0-2.109,0.66-4.06,1.79-5.67v-34.41c0-1.56,1.271-2.83,2.83-2.83h6.61v-2.8
	c0-1.57,1.26-2.84,2.83-2.84h24.09c1.57,0,2.84,1.27,2.84,2.84v2.8h48.181c2.079-0.27,3.689-2.05,3.689-4.21v-7.09
	c0-2.35-1.899-4.25-4.25-4.25h-98.16c-2.35,0-4.26,1.9-4.26,4.25v221.101c0,2.35,1.91,4.26,4.26,4.26h175.74
	c2.35,0,4.26-1.91,4.26-4.26V32.758C667.405,30.409,665.495,28.508,663.146,28.508z M492.646,33.468c2.5,0,4.54,2.03,4.54,4.54
	c0,2.5-2.04,4.53-4.54,4.53s-4.53-2.03-4.53-4.53C488.115,35.499,490.146,33.468,492.646,33.468z M492.646,253.159
	c-2.5,0-4.53-2.03-4.53-4.54c0-2.5,2.03-4.54,4.53-4.54s4.54,2.04,4.54,4.54C497.186,251.128,495.146,253.159,492.646,253.159z
	 M657.905,253.159c-2.51,0-4.529-2.03-4.529-4.54c0-2.5,2.02-4.54,4.529-4.54c2.5,0,4.54,2.04,4.54,4.54
	C662.445,251.128,660.405,253.159,657.905,253.159z M657.905,42.539c-1.229,0-2.33-0.48-3.14-1.271
	c-0.86-0.819-1.39-1.979-1.39-3.26c0-1.41,0.64-2.67,1.64-3.5c0.78-0.649,1.79-1.04,2.89-1.04c2.5,0,4.54,2.03,4.54,4.54
	C662.445,40.508,660.405,42.539,657.905,42.539z"/>
<g>
	<path fill="#EC008C" d="M254.781,18.806v-8.59h2.959c0.668,0,1.178,0.041,1.529,0.123c0.492,0.113,0.912,0.318,1.26,0.615
		c0.453,0.383,0.792,0.872,1.017,1.468s0.337,1.276,0.337,2.042c0,0.652-0.076,1.23-0.229,1.734s-0.348,0.921-0.586,1.251
		s-0.499,0.59-0.782,0.779s-0.625,0.333-1.025,0.431s-0.86,0.146-1.38,0.146H254.781z M255.917,17.792h1.834
		c0.566,0,1.011-0.053,1.333-0.158s0.579-0.254,0.771-0.445c0.27-0.27,0.479-0.632,0.63-1.087s0.226-1.007,0.226-1.655
		c0-0.898-0.147-1.589-0.442-2.071s-0.653-0.806-1.075-0.97c-0.305-0.117-0.795-0.176-1.471-0.176h-1.805V17.792z"/>
	<path fill="#EC008C" d="M263.64,18.806v-8.59h1.137v8.59H263.64z"/>
	<path fill="#EC008C" d="M266.394,16.046l1.072-0.094c0.051,0.43,0.169,0.782,0.354,1.058s0.474,0.498,0.864,0.668
		s0.83,0.255,1.318,0.255c0.434,0,0.816-0.064,1.148-0.193s0.579-0.306,0.741-0.53s0.243-0.47,0.243-0.735
		c0-0.27-0.078-0.505-0.234-0.706s-0.414-0.37-0.773-0.507c-0.23-0.09-0.74-0.229-1.529-0.419s-1.342-0.368-1.658-0.536
		c-0.41-0.215-0.716-0.481-0.917-0.8s-0.302-0.675-0.302-1.069c0-0.434,0.123-0.839,0.369-1.216s0.605-0.663,1.078-0.858
		s0.998-0.293,1.576-0.293c0.637,0,1.198,0.103,1.685,0.308s0.86,0.507,1.122,0.905s0.402,0.85,0.422,1.354l-1.09,0.082
		c-0.059-0.543-0.257-0.953-0.595-1.23s-0.837-0.416-1.497-0.416c-0.688,0-1.188,0.126-1.503,0.378s-0.472,0.556-0.472,0.911
		c0,0.309,0.111,0.563,0.334,0.762c0.219,0.199,0.79,0.403,1.714,0.612s1.558,0.392,1.901,0.548c0.5,0.23,0.869,0.522,1.107,0.876
		s0.357,0.761,0.357,1.222c0,0.457-0.131,0.888-0.393,1.292s-0.638,0.719-1.128,0.943s-1.042,0.337-1.655,0.337
		c-0.777,0-1.429-0.113-1.954-0.34s-0.938-0.567-1.236-1.022S266.41,16.621,266.394,16.046z"/>
	<path fill="#EC008C" d="M276.97,18.806V11.23h-2.83v-1.014h6.809v1.014h-2.842v7.576H276.97z"/>
	<path fill="#EC008C" d="M286.898,21.332c-0.582-0.734-1.074-1.594-1.477-2.578s-0.604-2.004-0.604-3.059
		c0-0.93,0.15-1.82,0.451-2.672c0.352-0.988,0.895-1.973,1.629-2.953h0.756c-0.473,0.813-0.785,1.393-0.938,1.74
		c-0.238,0.539-0.426,1.102-0.563,1.688c-0.168,0.73-0.252,1.465-0.252,2.203c0,1.879,0.584,3.756,1.752,5.631H286.898z"/>
	<path fill="#EC008C" d="M292.341,18.806h-1.055v-6.721c-0.254,0.242-0.587,0.484-0.999,0.727s-0.782,0.424-1.11,0.545v-1.02
		c0.59-0.277,1.105-0.613,1.547-1.008s0.754-0.777,0.938-1.148h0.68V18.806z"/>
	<path fill="#EC008C" d="M295.811,21.332h-0.756c1.168-1.875,1.752-3.752,1.752-5.631c0-0.734-0.084-1.463-0.252-2.186
		c-0.133-0.586-0.318-1.148-0.557-1.688c-0.152-0.352-0.467-0.938-0.943-1.758h0.756c0.734,0.98,1.277,1.965,1.629,2.953
		c0.301,0.852,0.451,1.742,0.451,2.672c0,1.055-0.202,2.074-0.606,3.059S296.389,20.597,295.811,21.332z"/>
</g>
<g>
	<path fill="#EC008C" d="M489.707,10.216h1.137v4.963c0,0.863-0.098,1.549-0.293,2.057s-0.547,0.921-1.057,1.239
		s-1.18,0.478-2.008,0.478c-0.805,0-1.463-0.139-1.975-0.416s-0.877-0.679-1.096-1.204s-0.328-1.243-0.328-2.153v-4.963h1.137v4.957
		c0,0.746,0.07,1.296,0.209,1.649s0.377,0.626,0.715,0.817s0.75,0.287,1.238,0.287c0.836,0,1.432-0.189,1.787-0.568
		s0.533-1.107,0.533-2.186V10.216z"/>
	<path fill="#EC008C" d="M492.35,16.046l1.072-0.094c0.051,0.43,0.17,0.782,0.355,1.058s0.473,0.498,0.863,0.668
		s0.83,0.255,1.318,0.255c0.434,0,0.816-0.064,1.148-0.193s0.58-0.306,0.742-0.53s0.242-0.47,0.242-0.735
		c0-0.27-0.078-0.505-0.234-0.706s-0.414-0.37-0.773-0.507c-0.23-0.09-0.74-0.229-1.529-0.419s-1.342-0.368-1.658-0.536
		c-0.41-0.215-0.715-0.481-0.916-0.8s-0.303-0.675-0.303-1.069c0-0.434,0.123-0.839,0.369-1.216s0.605-0.663,1.078-0.858
		s0.998-0.293,1.576-0.293c0.637,0,1.199,0.103,1.686,0.308s0.859,0.507,1.121,0.905s0.402,0.85,0.422,1.354l-1.09,0.082
		c-0.059-0.543-0.256-0.953-0.594-1.23s-0.838-0.416-1.498-0.416c-0.688,0-1.188,0.126-1.502,0.378s-0.473,0.556-0.473,0.911
		c0,0.309,0.111,0.563,0.334,0.762c0.219,0.199,0.791,0.403,1.715,0.612s1.557,0.392,1.9,0.548c0.5,0.23,0.869,0.522,1.107,0.876
		s0.357,0.761,0.357,1.222c0,0.457-0.131,0.888-0.393,1.292s-0.637,0.719-1.127,0.943s-1.043,0.337-1.656,0.337
		c-0.777,0-1.428-0.113-1.953-0.34s-0.938-0.567-1.236-1.022S492.365,16.621,492.35,16.046z"/>
	<path fill="#EC008C" d="M500.693,18.806v-8.59h3.223c0.656,0,1.184,0.087,1.58,0.261s0.707,0.441,0.932,0.803
		s0.336,0.739,0.336,1.134c0,0.367-0.1,0.713-0.299,1.037s-0.5,0.586-0.902,0.785c0.52,0.152,0.92,0.412,1.199,0.779
		s0.418,0.801,0.418,1.301c0,0.402-0.084,0.776-0.254,1.122s-0.381,0.612-0.631,0.8s-0.563,0.329-0.939,0.425
		s-0.84,0.144-1.387,0.144H500.693z M501.83,13.826h1.857c0.504,0,0.865-0.033,1.084-0.1c0.289-0.086,0.508-0.229,0.654-0.428
		s0.219-0.449,0.219-0.75c0-0.285-0.068-0.536-0.205-0.753s-0.332-0.365-0.586-0.445s-0.689-0.12-1.307-0.12h-1.717V13.826z
		 M501.83,17.792h2.139c0.367,0,0.625-0.014,0.773-0.041c0.262-0.047,0.48-0.125,0.656-0.234s0.32-0.269,0.434-0.478
		s0.17-0.45,0.17-0.724c0-0.32-0.082-0.599-0.246-0.835s-0.391-0.402-0.682-0.498s-0.711-0.144-1.258-0.144h-1.986V17.792z"/>
	<path fill="#EC008C" d="M513.959,21.332c-0.582-0.734-1.074-1.594-1.477-2.578s-0.604-2.004-0.604-3.059
		c0-0.93,0.15-1.82,0.451-2.672c0.352-0.988,0.895-1.973,1.629-2.953h0.756c-0.473,0.813-0.785,1.393-0.938,1.74
		c-0.238,0.539-0.426,1.102-0.563,1.688c-0.168,0.73-0.252,1.465-0.252,2.203c0,1.879,0.584,3.756,1.752,5.631H513.959z"/>
	<path fill="#EC008C" d="M515.646,16.556l1.107-0.094c0.082,0.539,0.273,0.944,0.572,1.216s0.658,0.407,1.08,0.407
		c0.508,0,0.938-0.191,1.289-0.574s0.527-0.891,0.527-1.523c0-0.602-0.168-1.076-0.506-1.424s-0.781-0.521-1.328-0.521
		c-0.34,0-0.646,0.077-0.92,0.231s-0.488,0.354-0.645,0.601l-0.99-0.129l0.832-4.412h4.271v1.008h-3.428l-0.463,2.309
		c0.516-0.359,1.057-0.539,1.623-0.539c0.75,0,1.383,0.26,1.898,0.779s0.773,1.188,0.773,2.004c0,0.777-0.227,1.449-0.68,2.016
		c-0.551,0.695-1.303,1.043-2.256,1.043c-0.781,0-1.418-0.219-1.912-0.656S515.717,17.279,515.646,16.556z"/>
	<path fill="#EC008C" d="M523.305,21.332h-0.756c1.168-1.875,1.752-3.752,1.752-5.631c0-0.734-0.084-1.463-0.252-2.186
		c-0.133-0.586-0.318-1.148-0.557-1.688c-0.152-0.352-0.467-0.938-0.943-1.758h0.756c0.734,0.98,1.277,1.965,1.629,2.953
		c0.301,0.852,0.451,1.742,0.451,2.672c0,1.055-0.201,2.074-0.605,3.059S523.883,20.597,523.305,21.332z"/>
</g>
<g>
	<path fill="#EC008C" d="M254.394,310.849l1.072-0.094c0.051,0.43,0.169,0.783,0.354,1.059s0.474,0.498,0.864,0.668
		s0.83,0.254,1.318,0.254c0.434,0,0.816-0.064,1.148-0.193s0.579-0.305,0.741-0.529s0.243-0.471,0.243-0.736
		c0-0.27-0.078-0.504-0.234-0.705s-0.414-0.371-0.773-0.508c-0.23-0.09-0.74-0.229-1.529-0.418s-1.342-0.369-1.658-0.537
		c-0.41-0.215-0.716-0.48-0.917-0.799s-0.302-0.676-0.302-1.07c0-0.434,0.123-0.838,0.369-1.215s0.605-0.664,1.078-0.859
		s0.998-0.293,1.576-0.293c0.637,0,1.198,0.104,1.685,0.309s0.86,0.506,1.122,0.904s0.402,0.85,0.422,1.354l-1.09,0.082
		c-0.059-0.543-0.257-0.953-0.595-1.23s-0.837-0.416-1.497-0.416c-0.688,0-1.188,0.127-1.503,0.379s-0.472,0.555-0.472,0.91
		c0,0.309,0.111,0.563,0.334,0.762c0.219,0.199,0.79,0.404,1.714,0.613s1.558,0.391,1.901,0.547c0.5,0.23,0.869,0.523,1.107,0.877
		s0.357,0.76,0.357,1.221c0,0.457-0.131,0.889-0.393,1.293s-0.638,0.719-1.128,0.943s-1.042,0.336-1.655,0.336
		c-0.777,0-1.429-0.113-1.954-0.34s-0.938-0.566-1.236-1.021S254.41,311.423,254.394,310.849z"/>
	<path fill="#EC008C" d="M262.439,309.425c0-1.426,0.383-2.541,1.148-3.348s1.754-1.211,2.965-1.211
		c0.793,0,1.508,0.189,2.145,0.568s1.122,0.908,1.456,1.586s0.501,1.445,0.501,2.305c0,0.871-0.176,1.65-0.527,2.338
		s-0.85,1.209-1.494,1.563s-1.34,0.529-2.086,0.529c-0.809,0-1.531-0.195-2.168-0.586s-1.119-0.924-1.447-1.6
		S262.439,310.179,262.439,309.425z M263.611,309.443c0,1.035,0.278,1.852,0.835,2.447s1.255,0.893,2.095,0.893
		c0.855,0,1.56-0.301,2.112-0.902s0.829-1.455,0.829-2.561c0-0.699-0.118-1.309-0.354-1.83s-0.582-0.926-1.037-1.213
		s-0.966-0.432-1.532-0.432c-0.805,0-1.497,0.277-2.077,0.83S263.611,308.15,263.611,309.443z"/>
	<path fill="#EC008C" d="M272.072,313.609v-8.59h1.137v7.576h4.23v1.014H272.072z"/>
	<path fill="#EC008C" d="M278.986,313.609v-8.59h1.137v8.59H278.986z"/>
	<path fill="#EC008C" d="M282.126,313.609v-8.59h2.959c0.668,0,1.178,0.041,1.529,0.123c0.492,0.113,0.912,0.318,1.26,0.615
		c0.453,0.383,0.792,0.873,1.017,1.469s0.337,1.275,0.337,2.041c0,0.652-0.076,1.23-0.229,1.734s-0.348,0.922-0.586,1.252
		s-0.499,0.59-0.782,0.779s-0.625,0.332-1.025,0.43s-0.86,0.146-1.38,0.146H282.126z M283.263,312.595h1.834
		c0.566,0,1.011-0.053,1.333-0.158s0.579-0.254,0.771-0.445c0.27-0.27,0.479-0.631,0.63-1.086s0.226-1.008,0.226-1.656
		c0-0.898-0.147-1.588-0.442-2.07s-0.653-0.807-1.075-0.971c-0.305-0.117-0.795-0.176-1.471-0.176h-1.805V312.595z"/>
	<path fill="#EC008C" d="M296.007,316.134c-0.582-0.734-1.074-1.594-1.477-2.578s-0.604-2.004-0.604-3.059
		c0-0.93,0.15-1.82,0.451-2.672c0.352-0.988,0.895-1.973,1.629-2.953h0.756c-0.473,0.813-0.785,1.393-0.938,1.74
		c-0.238,0.539-0.426,1.102-0.563,1.688c-0.168,0.73-0.252,1.465-0.252,2.203c0,1.879,0.584,3.756,1.752,5.631H296.007z"/>
	<path fill="#EC008C" d="M303.238,312.595v1.014h-5.678c-0.008-0.254,0.033-0.498,0.123-0.732c0.145-0.387,0.376-0.768,0.694-1.143
		s0.778-0.809,1.38-1.301c0.934-0.766,1.564-1.371,1.893-1.818s0.492-0.871,0.492-1.27c0-0.418-0.149-0.77-0.448-1.057
		s-0.688-0.432-1.169-0.432c-0.508,0-0.914,0.152-1.219,0.457s-0.459,0.727-0.463,1.266l-1.084-0.111
		c0.074-0.809,0.354-1.424,0.838-1.848s1.135-0.637,1.951-0.637c0.824,0,1.477,0.229,1.957,0.686s0.721,1.023,0.721,1.699
		c0,0.344-0.07,0.682-0.211,1.014s-0.374,0.682-0.7,1.049s-0.868,0.871-1.626,1.512c-0.633,0.531-1.039,0.893-1.219,1.082
		s-0.328,0.379-0.445,0.57H303.238z"/>
	<path fill="#EC008C" d="M305.353,316.134h-0.756c1.168-1.875,1.752-3.752,1.752-5.631c0-0.734-0.084-1.463-0.252-2.186
		c-0.133-0.586-0.318-1.148-0.557-1.688c-0.152-0.352-0.467-0.938-0.943-1.758h0.756c0.734,0.98,1.277,1.965,1.629,2.953
		c0.301,0.852,0.451,1.742,0.451,2.672c0,1.055-0.202,2.074-0.606,3.059S305.931,315.4,305.353,316.134z"/>
</g>
<g>
	<path fill="#EC008C" d="M16.021,313.609v-7.576h-2.83v-1.014H20v1.014h-2.842v7.576H16.021z"/>
	<path fill="#EC008C" d="M21.189,313.609v-8.59H27.4v1.014h-5.074v2.631h4.752v1.008h-4.752v2.924H27.6v1.014H21.189z"/>
	<path fill="#EC008C" d="M29.188,313.609v-8.59h3.809c0.766,0,1.348,0.078,1.746,0.232s0.717,0.426,0.955,0.816
		s0.357,0.822,0.357,1.295c0,0.609-0.197,1.123-0.592,1.541s-1.004,0.684-1.828,0.797c0.301,0.145,0.529,0.287,0.686,0.428
		c0.332,0.305,0.646,0.686,0.943,1.143l1.494,2.338h-1.43l-1.137-1.787c-0.332-0.516-0.605-0.91-0.82-1.184
		s-0.407-0.465-0.577-0.574s-0.343-0.186-0.519-0.229c-0.129-0.027-0.34-0.041-0.633-0.041h-1.318v3.814H29.188z M30.324,308.81
		h2.443c0.52,0,0.926-0.053,1.219-0.16s0.516-0.279,0.668-0.516s0.229-0.494,0.229-0.771c0-0.406-0.147-0.74-0.442-1.002
		s-0.761-0.393-1.397-0.393h-2.719V308.81z"/>
	<path fill="#EC008C" d="M37.801,313.609v-8.59h1.711l2.033,6.082c0.188,0.566,0.324,0.99,0.41,1.271
		c0.098-0.313,0.25-0.771,0.457-1.377l2.057-5.977h1.529v8.59h-1.096v-7.189l-2.496,7.189h-1.025l-2.484-7.313v7.313H37.801z"/>
	<path fill="#EC008C" d="M53.047,316.134c-0.582-0.734-1.074-1.594-1.477-2.578s-0.604-2.004-0.604-3.059
		c0-0.93,0.15-1.82,0.451-2.672c0.352-0.988,0.895-1.973,1.629-2.953h0.756c-0.473,0.813-0.785,1.393-0.938,1.74
		c-0.238,0.539-0.426,1.102-0.563,1.688c-0.168,0.73-0.252,1.465-0.252,2.203c0,1.879,0.584,3.756,1.752,5.631H53.047z"/>
	<path fill="#EC008C" d="M54.74,311.341l1.055-0.141c0.121,0.598,0.327,1.029,0.618,1.293s0.646,0.395,1.063,0.395
		c0.496,0,0.915-0.172,1.257-0.516s0.513-0.77,0.513-1.277c0-0.484-0.158-0.883-0.475-1.197s-0.719-0.473-1.207-0.473
		c-0.199,0-0.447,0.039-0.744,0.117l0.117-0.926c0.07,0.008,0.127,0.012,0.17,0.012c0.449,0,0.854-0.117,1.213-0.352
		s0.539-0.596,0.539-1.084c0-0.387-0.131-0.707-0.393-0.961s-0.6-0.381-1.014-0.381c-0.41,0-0.752,0.129-1.025,0.387
		s-0.449,0.645-0.527,1.16l-1.055-0.188c0.129-0.707,0.422-1.254,0.879-1.643s1.025-0.584,1.705-0.584
		c0.469,0,0.9,0.102,1.295,0.303s0.696,0.475,0.905,0.822s0.313,0.717,0.313,1.107c0,0.371-0.1,0.709-0.299,1.014
		s-0.494,0.547-0.885,0.727c0.508,0.117,0.902,0.361,1.184,0.73s0.422,0.83,0.422,1.385c0,0.75-0.273,1.387-0.82,1.908
		s-1.238,0.781-2.074,0.781c-0.754,0-1.38-0.225-1.878-0.674S54.811,312.056,54.74,311.341z"/>
	<path fill="#EC008C" d="M62.393,316.134h-0.756c1.168-1.875,1.752-3.752,1.752-5.631c0-0.734-0.084-1.463-0.252-2.186
		c-0.133-0.586-0.318-1.148-0.557-1.688c-0.152-0.352-0.467-0.938-0.943-1.758h0.756c0.734,0.98,1.277,1.965,1.629,2.953
		c0.301,0.852,0.451,1.742,0.451,2.672c0,1.055-0.202,2.074-0.606,3.059S62.971,315.4,62.393,316.134z"/>
</g>
<g>
	<path fill="#EC008C" d="M13.788,18.806v-8.59h3.223c0.656,0,1.183,0.087,1.579,0.261s0.707,0.441,0.932,0.803
		s0.337,0.739,0.337,1.134c0,0.367-0.1,0.713-0.299,1.037s-0.5,0.586-0.902,0.785c0.52,0.152,0.919,0.412,1.198,0.779
		s0.419,0.801,0.419,1.301c0,0.402-0.085,0.776-0.255,1.122s-0.38,0.612-0.63,0.8s-0.563,0.329-0.94,0.425s-0.839,0.144-1.386,0.144
		H13.788z M14.925,13.826h1.857c0.504,0,0.865-0.033,1.084-0.1c0.289-0.086,0.507-0.229,0.653-0.428s0.22-0.449,0.22-0.75
		c0-0.285-0.068-0.536-0.205-0.753s-0.332-0.365-0.586-0.445s-0.689-0.12-1.307-0.12h-1.717V13.826z M14.925,17.792h2.139
		c0.367,0,0.625-0.014,0.773-0.041c0.262-0.047,0.48-0.125,0.656-0.234s0.32-0.269,0.434-0.478s0.17-0.45,0.17-0.724
		c0-0.32-0.082-0.599-0.246-0.835s-0.392-0.402-0.683-0.498s-0.71-0.144-1.257-0.144h-1.986V17.792z"/>
	<path fill="#EC008C" d="M21.493,14.623c0-1.426,0.383-2.542,1.148-3.349s1.754-1.21,2.965-1.21c0.793,0,1.508,0.189,2.145,0.568
		s1.122,0.907,1.456,1.585s0.501,1.446,0.501,2.306c0,0.871-0.176,1.65-0.527,2.338s-0.85,1.208-1.494,1.562s-1.34,0.53-2.086,0.53
		c-0.809,0-1.531-0.195-2.168-0.586s-1.119-0.924-1.447-1.6S21.493,15.376,21.493,14.623z M22.665,14.64
		c0,1.035,0.278,1.851,0.835,2.446s1.255,0.894,2.095,0.894c0.855,0,1.56-0.301,2.112-0.902s0.829-1.455,0.829-2.561
		c0-0.699-0.118-1.31-0.354-1.831s-0.582-0.926-1.037-1.213s-0.966-0.431-1.532-0.431c-0.805,0-1.497,0.276-2.077,0.829
		S22.665,13.347,22.665,14.64z"/>
	<path fill="#EC008C" d="M33.358,18.806V11.23h-2.83v-1.014h6.809v1.014h-2.842v7.576H33.358z"/>
	<path fill="#EC008C" d="M43.718,21.332c-0.582-0.734-1.074-1.594-1.477-2.578s-0.604-2.004-0.604-3.059
		c0-0.93,0.15-1.82,0.451-2.672c0.352-0.988,0.895-1.973,1.629-2.953h0.756c-0.473,0.813-0.785,1.393-0.938,1.74
		c-0.238,0.539-0.426,1.102-0.563,1.688c-0.168,0.73-0.252,1.465-0.252,2.203c0,1.879,0.584,3.756,1.752,5.631H43.718z"/>
	<path fill="#EC008C" d="M49.378,18.806h-1.055v-6.721c-0.254,0.242-0.587,0.484-0.999,0.727s-0.782,0.424-1.11,0.545v-1.02
		c0.59-0.277,1.105-0.613,1.547-1.008s0.754-0.777,0.938-1.148h0.68V18.806z"/>
	<path fill="#EC008C" d="M53.063,21.332h-0.756c1.168-1.875,1.752-3.752,1.752-5.631c0-0.734-0.084-1.463-0.252-2.186
		c-0.133-0.586-0.318-1.148-0.557-1.688c-0.152-0.352-0.467-0.938-0.943-1.758h0.756c0.734,0.98,1.277,1.965,1.629,2.953
		c0.301,0.852,0.451,1.742,0.451,2.672c0,1.055-0.202,2.074-0.606,3.059S53.642,20.597,53.063,21.332z"/>
</g>
<path d="M192.91,28.508H17.162c-2.349,0-4.252,1.904-4.252,4.252v221.104c0,2.348,1.903,4.252,4.252,4.252H192.91
	c2.349,0,4.252-1.904,4.252-4.252V32.76C197.162,30.413,195.258,28.508,192.91,28.508z M22.406,253.155
	c-2.506,0-4.535-2.03-4.535-4.535s2.029-4.536,4.535-4.536c2.504,0,4.535,2.031,4.535,4.536S24.91,253.155,22.406,253.155z
	 M22.406,42.541c-2.506,0-4.535-2.03-4.535-4.535s2.029-4.536,4.535-4.536c2.504,0,4.535,2.031,4.535,4.536
	S24.91,42.541,22.406,42.541z M36.636,91.864c-2.506,0-4.535-2.031-4.535-4.535c0-2.506,2.029-4.537,4.535-4.537
	c2.504,0,4.535,2.031,4.535,4.537C41.171,89.833,39.14,91.864,36.636,91.864z M50.886,239.067c-2.506,0-4.535-2.029-4.535-4.535
	s2.029-4.535,4.535-4.535c2.504,0,4.535,2.029,4.535,4.535S53.39,239.067,50.886,239.067z M130.185,239.067
	c-2.504,0-4.533-2.029-4.533-4.535s2.029-4.535,4.533-4.535c2.506,0,4.535,2.029,4.535,4.535S132.691,239.067,130.185,239.067z
	 M173.435,95.19c-2.504,0-4.533-2.031-4.533-4.535c0-2.506,2.029-4.535,4.533-4.535c2.506,0,4.537,2.029,4.537,4.535
	C177.972,93.159,175.941,95.19,173.435,95.19z M187.666,253.155c-2.506,0-4.535-2.03-4.535-4.535s2.029-4.536,4.535-4.536
	c2.504,0,4.535,2.031,4.535,4.536S190.169,253.155,187.666,253.155z M187.666,42.541c-2.506,0-4.535-2.03-4.535-4.535
	s2.029-4.536,4.535-4.536c2.504,0,4.535,2.031,4.535,4.536S190.169,42.541,187.666,42.541z"/>
<path d="M433.854,28.508H258.107c-2.349,0-4.252,1.904-4.252,4.252v221.104c0,2.348,1.903,4.252,4.252,4.252h175.748
	c2.35,0,4.252-1.904,4.252-4.252V32.76C438.106,30.413,436.204,28.508,433.854,28.508z M263.351,253.155
	c-2.506,0-4.535-2.03-4.535-4.535s2.029-4.536,4.535-4.536c2.504,0,4.535,2.031,4.535,4.536S265.855,253.155,263.351,253.155z
	 M263.351,42.541c-2.506,0-4.535-2.03-4.535-4.535s2.029-4.536,4.535-4.536c2.504,0,4.535,2.031,4.535,4.536
	S265.855,42.541,263.351,42.541z M291.832,239.067c-2.506,0-4.535-2.029-4.535-4.535s2.029-4.535,4.535-4.535
	c2.504,0,4.535,2.029,4.535,4.535S294.335,239.067,291.832,239.067z M371.13,239.067c-2.504,0-4.533-2.029-4.533-4.535
	s2.029-4.535,4.533-4.535c2.506,0,4.535,2.029,4.535,4.535S373.636,239.067,371.13,239.067z M411.265,83.285
	c-2.348,0-4.252,1.904-4.252,4.252v6.236c0,2.348,1.904,4.252,4.252,4.252h9.178v0.034c1.174,0,2.125,0.952,2.125,2.126
	c0,0.155-0.02,0.307-0.051,0.453v139.009c0,1.565-1.27,2.834-2.834,2.834h-36.504l0,0c-1.174-0.001-2.125-0.952-2.125-2.126V228.58
	c0-2.348-1.904-4.252-4.252-4.252h-11.34c-2.348,0-4.252,1.904-4.252,4.252v11.766c0,0.003,0,0.007,0,0.01
	c0,1.174-0.951,2.126-2.125,2.126h-0.002l0,0h-55.195c-0.004,0-0.007,0.001-0.01,0.001c-1.174,0-2.126-0.952-2.126-2.126
	c0-0.003,0.001-0.007,0.001-0.01V228.58c0-2.348-1.904-4.252-4.252-4.252h-11.34c-2.348,0-4.252,1.904-4.252,4.252v11.776
	c0,1.174-0.952,2.126-2.126,2.126c-0.003,0-0.007-0.001-0.01-0.001h-7.493c-1.565,0-2.835-1.269-2.835-2.834V96.891
	c0-1.174,0.952-2.126,2.126-2.126v-0.067h9.127c2.348,0,4.252-1.903,4.252-4.252v-6.236c0-2.348-1.904-4.252-4.252-4.252h-9.127
	c-1.174,0-2.126-0.952-2.126-2.126v-30.94c0-1.566,1.27-2.835,2.835-2.835h147.402c1.564,0,2.834,1.269,2.834,2.835v33.781
	c0.031,0.146,0.051,0.298,0.051,0.453c0,1.174-0.951,2.126-2.125,2.126v0.033H411.265z M418.917,90.655
	c0,2.504-2.031,4.535-4.537,4.535c-2.504,0-4.533-2.031-4.533-4.535c0-2.506,2.029-4.535,4.533-4.535
	C416.886,86.12,418.917,88.149,418.917,90.655z M273.046,87.329c0-2.506,2.029-4.537,4.535-4.537c2.504,0,4.535,2.031,4.535,4.537
	c0,2.504-2.031,4.535-4.535,4.535C275.076,91.864,273.046,89.833,273.046,87.329z M428.61,253.155c-2.506,0-4.535-2.03-4.535-4.535
	s2.029-4.536,4.535-4.536c2.504,0,4.535,2.031,4.535,4.536S431.114,253.155,428.61,253.155z M428.61,42.541
	c-2.506,0-4.535-2.03-4.535-4.535s2.029-4.536,4.535-4.536c2.504,0,4.535,2.031,4.535,4.536S431.114,42.541,428.61,42.541z"/>
<path d="M192.91,323.311H17.16c-2.35,0-4.25,1.9-4.25,4.25v221.101c0,2.35,1.9,4.26,4.25,4.26h60.94c2.22,0,4.04-1.71,4.229-3.88
	c0.01-0.141,0.021-0.28,0.021-0.431v-7.09c0-2.28-1.78-4.13-4.03-4.24H31.33c-1.56,0-2.83-1.27-2.83-2.83v-192.76
	c0-1.56,1.271-2.83,2.83-2.83h147.4c1.569,0,2.84,1.271,2.84,2.83v192.76c0,1.561-1.271,2.83-2.84,2.83H145.92
	c-2.25,0.11-4.04,1.96-4.04,4.24v7.09c0,0.15,0.011,0.29,0.021,0.431c0.189,2.17,2.01,3.88,4.229,3.88h46.78
	c2.34,0,4.25-1.91,4.25-4.26V327.561C197.16,325.211,195.25,323.311,192.91,323.311z M22.4,547.961c-2.5,0-4.53-2.03-4.53-4.54
	c0-2.5,2.03-4.54,4.53-4.54c2.51,0,4.54,2.04,4.54,4.54C26.94,545.931,24.91,547.961,22.4,547.961z M22.4,337.341
	c-2.5,0-4.53-2.03-4.53-4.53c0-2.51,2.03-4.54,4.53-4.54c2.51,0,4.54,2.03,4.54,4.54C26.94,335.311,24.91,337.341,22.4,337.341z
	 M187.66,547.961c-2.5,0-4.53-2.03-4.53-4.54c0-2.5,2.03-4.54,4.53-4.54s4.54,2.04,4.54,4.54
	C192.2,545.931,190.16,547.961,187.66,547.961z M187.66,337.341c-2.5,0-4.53-2.03-4.53-4.53c0-2.51,2.03-4.54,4.53-4.54
	s4.54,2.03,4.54,4.54C192.2,335.311,190.16,337.341,187.66,337.341z"/>
<path d="M433.854,323.311H258.107c-2.349,0-4.252,1.904-4.252,4.252v221.104c0,2.348,1.903,4.252,4.252,4.252h175.748
	c2.35,0,4.252-1.904,4.252-4.252V327.563C438.106,325.215,436.204,323.311,433.854,323.311z M263.351,547.958
	c-2.506,0-4.535-2.03-4.535-4.535s2.029-4.536,4.535-4.536c2.504,0,4.535,2.031,4.535,4.536S265.855,547.958,263.351,547.958z
	 M263.351,337.343c-2.506,0-4.535-2.03-4.535-4.535s2.029-4.536,4.535-4.536c2.504,0,4.535,2.031,4.535,4.536
	S265.855,337.343,263.351,337.343z M422.517,534.45c0,1.565-1.27,2.834-2.834,2.834H272.281c-1.565,0-2.835-1.269-2.835-2.834
	V341.694c0-1.566,1.27-2.835,2.835-2.835h147.402c1.564,0,2.834,1.269,2.834,2.835V534.45z M428.61,547.958
	c-2.506,0-4.535-2.03-4.535-4.535s2.029-4.536,4.535-4.536c2.504,0,4.535,2.031,4.535,4.536S431.114,547.958,428.61,547.958z
	 M428.61,337.343c-2.506,0-4.535-2.03-4.535-4.535s2.029-4.536,4.535-4.536c2.504,0,4.535,2.031,4.535,4.536
	S431.114,337.343,428.61,337.343z"/>
<line stroke="#EC008C" stroke-miterlimit="10" x1="428.737" y1="323.311" x2="463.737" y2="323.311"/>
<line stroke="#EC008C" stroke-miterlimit="10" x1="428.737" y1="552.918" x2="463.737" y2="552.918"/>
<g>
	<line x1="463.737" y1="323.311" x2="463.737" y2="552.918"/>
	<g>
		<line fill="none" stroke="#EC008C" stroke-miterlimit="10" x1="463.737" y1="330.372" x2="463.737" y2="545.858"/>
		<g>
			<polygon fill="#EC008C" points="463.737,323.311 459.672,333.26 463.737,330.9 467.802,333.26 			"/>
		</g>
		<g>
			<polygon fill="#EC008C" points="463.737,552.918 459.672,542.969 463.737,545.33 467.802,542.969 			"/>
		</g>
	</g>
</g>
<g>
	<path fill="#EC008C" d="M470.977,436.658c-0.438-0.16-0.762-0.389-0.973-0.686s-0.316-0.652-0.316-1.066
		c0-0.625,0.225-1.15,0.674-1.576s1.047-0.639,1.793-0.639c0.75,0,1.354,0.217,1.811,0.652s0.686,0.967,0.686,1.592
		c0,0.398-0.105,0.744-0.314,1.039s-0.525,0.523-0.951,0.684c0.527,0.172,0.928,0.449,1.203,0.832s0.414,0.84,0.414,1.371
		c0,0.734-0.26,1.352-0.779,1.852s-1.203,0.75-2.051,0.75s-1.531-0.252-2.051-0.754s-0.779-1.127-0.779-1.877
		c0-0.559,0.141-1.027,0.424-1.404S470.453,436.794,470.977,436.658z M470.426,438.837c0,0.301,0.07,0.592,0.213,0.873
		s0.355,0.498,0.637,0.652s0.584,0.232,0.908,0.232c0.504,0,0.92-0.162,1.248-0.486s0.492-0.736,0.492-1.236
		c0-0.508-0.17-0.928-0.508-1.26s-0.76-0.498-1.268-0.498c-0.496,0-0.908,0.164-1.234,0.492S470.426,438.345,470.426,438.837z
		 M470.766,434.871c0,0.406,0.131,0.738,0.393,0.996s0.602,0.387,1.02,0.387c0.406,0,0.738-0.129,0.998-0.385
		s0.391-0.568,0.391-0.939c0-0.387-0.135-0.713-0.402-0.977s-0.6-0.395-0.998-0.395c-0.402,0-0.736,0.129-1.002,0.387
		S470.766,434.511,470.766,434.871z"/>
	<path fill="#EC008C" d="M480,441.316h-1.055v-6.721c-0.254,0.242-0.588,0.484-1,0.727s-0.781,0.424-1.109,0.545v-1.02
		c0.59-0.277,1.105-0.613,1.547-1.008s0.754-0.777,0.938-1.148H480V441.316z"/>
	<path fill="#EC008C" d="M486.328,441.316v-6.223h0.943v0.873c0.195-0.305,0.455-0.551,0.779-0.736s0.693-0.277,1.107-0.277
		c0.461,0,0.838,0.096,1.133,0.287s0.504,0.459,0.625,0.803c0.492-0.727,1.133-1.09,1.922-1.09c0.617,0,1.092,0.17,1.424,0.512
		s0.498,0.869,0.498,1.58v4.271h-1.049v-3.92c0-0.422-0.035-0.727-0.104-0.912s-0.191-0.334-0.371-0.447s-0.391-0.17-0.633-0.17
		c-0.438,0-0.801,0.145-1.09,0.436s-0.434,0.758-0.434,1.398v3.615h-1.055v-4.043c0-0.469-0.086-0.82-0.258-1.055
		s-0.453-0.352-0.844-0.352c-0.297,0-0.572,0.078-0.824,0.234s-0.434,0.385-0.547,0.686s-0.17,0.734-0.17,1.301v3.229H486.328z"/>
	<path fill="#EC008C" d="M496.324,441.316v-6.223h0.943v0.873c0.195-0.305,0.455-0.551,0.779-0.736s0.693-0.277,1.107-0.277
		c0.461,0,0.838,0.096,1.133,0.287s0.504,0.459,0.625,0.803c0.492-0.727,1.133-1.09,1.922-1.09c0.617,0,1.092,0.17,1.424,0.512
		s0.498,0.869,0.498,1.58v4.271h-1.049v-3.92c0-0.422-0.035-0.727-0.104-0.912s-0.191-0.334-0.371-0.447s-0.391-0.17-0.633-0.17
		c-0.438,0-0.801,0.145-1.09,0.436s-0.434,0.758-0.434,1.398v3.615h-1.055v-4.043c0-0.469-0.086-0.82-0.258-1.055
		s-0.453-0.352-0.844-0.352c-0.297,0-0.572,0.078-0.824,0.234s-0.434,0.385-0.547,0.686s-0.17,0.734-0.17,1.301v3.229H496.324z"/>
</g>
<line stroke="#EC008C" stroke-miterlimit="10" x1="438.106" y1="531.768" x2="438.106" y2="566.768"/>
<line stroke="#EC008C" stroke-miterlimit="10" x1="253.851" y1="531.768" x2="253.851" y2="566.768"/>
<g>
	<line x1="438.106" y1="566.768" x2="253.851" y2="566.768"/>
	<g>
		<line fill="none" stroke="#EC008C" stroke-miterlimit="10" x1="431.046" y1="566.768" x2="260.912" y2="566.768"/>
		<g>
			<polygon fill="#EC008C" points="438.106,566.768 428.157,562.703 430.518,566.768 428.157,570.833 			"/>
		</g>
		<g>
			<polygon fill="#EC008C" points="253.851,566.768 263.8,562.703 261.439,566.768 263.8,570.833 			"/>
		</g>
	</g>
</g>
<g>
	<path fill="#EC008C" d="M333.613,576.386l-1.049,0.082c-0.094-0.414-0.227-0.715-0.398-0.902c-0.285-0.301-0.637-0.451-1.055-0.451
		c-0.336,0-0.631,0.094-0.885,0.281c-0.332,0.242-0.594,0.596-0.785,1.061s-0.291,1.127-0.299,1.986
		c0.254-0.387,0.564-0.674,0.932-0.861s0.752-0.281,1.154-0.281c0.703,0,1.302,0.258,1.796,0.775s0.741,1.188,0.741,2.008
		c0,0.539-0.116,1.039-0.349,1.502s-0.552,0.818-0.958,1.064s-0.867,0.369-1.383,0.369c-0.879,0-1.596-0.324-2.15-0.971
		s-0.832-1.711-0.832-3.195c0-1.66,0.307-2.867,0.92-3.621c0.535-0.656,1.256-0.984,2.162-0.984c0.676,0,1.229,0.189,1.661,0.568
		S333.527,575.718,333.613,576.386z M329.306,580.089c0,0.363,0.077,0.711,0.231,1.043s0.37,0.584,0.647,0.758
		s0.568,0.262,0.873,0.262c0.445,0,0.828-0.18,1.148-0.539s0.48-0.848,0.48-1.465c0-0.594-0.158-1.063-0.475-1.404
		s-0.715-0.512-1.195-0.512c-0.477,0-0.881,0.17-1.213,0.512S329.306,579.535,329.306,580.089z"/>
	<path fill="#EC008C" d="M334.814,580.623l1.107-0.094c0.082,0.539,0.272,0.943,0.571,1.215s0.659,0.408,1.081,0.408
		c0.508,0,0.938-0.191,1.289-0.574s0.527-0.891,0.527-1.523c0-0.602-0.169-1.076-0.507-1.424s-0.78-0.521-1.327-0.521
		c-0.34,0-0.646,0.076-0.92,0.23s-0.488,0.355-0.645,0.602l-0.99-0.129l0.832-4.412h4.271v1.008h-3.428l-0.463,2.309
		c0.516-0.359,1.057-0.539,1.623-0.539c0.75,0,1.383,0.26,1.898,0.779s0.773,1.188,0.773,2.004c0,0.777-0.227,1.449-0.68,2.016
		c-0.551,0.695-1.303,1.043-2.256,1.043c-0.781,0-1.419-0.219-1.913-0.656S334.884,581.345,334.814,580.623z"/>
	<path fill="#EC008C" d="M345.115,582.873v-6.223h0.943v0.873c0.195-0.305,0.455-0.551,0.779-0.736s0.693-0.277,1.107-0.277
		c0.461,0,0.839,0.096,1.134,0.287s0.503,0.459,0.624,0.803c0.492-0.727,1.133-1.09,1.922-1.09c0.617,0,1.092,0.17,1.424,0.512
		s0.498,0.869,0.498,1.58v4.271h-1.049v-3.92c0-0.422-0.034-0.727-0.103-0.912s-0.192-0.334-0.372-0.447s-0.391-0.17-0.633-0.17
		c-0.438,0-0.801,0.145-1.09,0.436s-0.434,0.758-0.434,1.398v3.615h-1.055v-4.043c0-0.469-0.086-0.82-0.258-1.055
		s-0.453-0.352-0.844-0.352c-0.297,0-0.571,0.078-0.823,0.234s-0.435,0.385-0.548,0.686s-0.17,0.734-0.17,1.301v3.229H345.115z"/>
	<path fill="#EC008C" d="M355.111,582.873v-6.223h0.943v0.873c0.195-0.305,0.455-0.551,0.779-0.736s0.693-0.277,1.107-0.277
		c0.461,0,0.838,0.096,1.133,0.287s0.504,0.459,0.625,0.803c0.492-0.727,1.133-1.09,1.922-1.09c0.617,0,1.092,0.17,1.424,0.512
		s0.498,0.869,0.498,1.58v4.271h-1.049v-3.92c0-0.422-0.035-0.727-0.104-0.912s-0.191-0.334-0.371-0.447s-0.391-0.17-0.633-0.17
		c-0.438,0-0.801,0.145-1.09,0.436s-0.434,0.758-0.434,1.398v3.615h-1.055v-4.043c0-0.469-0.086-0.82-0.258-1.055
		s-0.453-0.352-0.844-0.352c-0.297,0-0.572,0.078-0.824,0.234s-0.434,0.385-0.547,0.686s-0.17,0.734-0.17,1.301v3.229H355.111z"/>
</g>
</svg>
