<?xml version="1.0" encoding="utf-8"?>
<!-- Generator: Adobe Illustrator 18.1.1, SVG Export Plug-In . SVG Version: 6.00 Build 0)  -->
<svg version="1.1" id="Layer_1" xmlns="http://www.w3.org/2000/svg" xmlns:xlink="http://www.w3.org/1999/xlink" x="0px" y="0px"
	 viewBox="42 123.6 680.3 595.3" enable-background="new 42 123.6 680.3 595.3" xml:space="preserve">
<path d="M705.1,152.1h-32.2c-2.4,0-4.3,1.9-4.3,4.3v7.1c0,2.2,1.6,3.9,3.7,4.2H691c0.2,0,0.3,0,0.5,0c1.3,0.2,2.4,1.4,2.4,2.8v38.1
	c1.1,1.6,1.8,3.6,1.8,5.7c0,2.1-0.7,4.1-1.8,5.7v143.3c0,1.6-1.3,2.8-2.8,2.8h-42.6c-1.7,1.2-3.7,2-5.9,2c-2.2,0-4.3-0.7-5.9-2H569
	c-1.7,1.2-3.7,2-5.9,2c-2.2,0-4.3-0.7-5.9-2h-13.6c-1.6,0-2.8-1.3-2.8-2.8v-147c-1.1-1.6-1.8-3.6-1.8-5.7c0-2.1,0.7-4.1,1.8-5.7
	v-34.4c0-1.6,1.3-2.8,2.8-2.8h6.6v-2.8c0-1.6,1.3-2.8,2.8-2.8h24.1c1.6,0,2.8,1.3,2.8,2.8v2.8h48.2c2.1-0.3,3.7-2.1,3.7-4.2v-7.1
	c0-2.4-1.9-4.3-4.3-4.3h-98.2c-2.4,0-4.3,1.9-4.3,4.3v221.1c0,2.4,1.9,4.3,4.3,4.3h175.7c2.3,0,4.3-1.9,4.3-4.3V156.4
	C709.4,154,707.5,152.1,705.1,152.1z M534.6,157.1c2.5,0,4.5,2,4.5,4.5c0,2.5-2,4.5-4.5,4.5s-4.5-2-4.5-4.5
	C530.1,159.1,532.1,157.1,534.6,157.1z M534.6,376.8c-2.5,0-4.5-2-4.5-4.5c0-2.5,2-4.5,4.5-4.5s4.5,2,4.5,4.5
	C539.2,374.7,537.1,376.8,534.6,376.8z M699.9,376.8c-2.5,0-4.5-2-4.5-4.5c0-2.5,2-4.5,4.5-4.5c2.5,0,4.5,2,4.5,4.5
	C704.4,374.7,702.4,376.8,699.9,376.8z M699.9,166.2c-1.2,0-2.3-0.5-3.1-1.3c-0.9-0.8-1.4-2-1.4-3.3c0-1.4,0.6-2.7,1.6-3.5
	c0.8-0.6,1.8-1,2.9-1c2.5,0,4.5,2,4.5,4.5C704.4,164.1,702.4,166.2,699.9,166.2z"/>
<g>
	<path fill="#EC008C" d="M296.8,142.4v-8.6h3c0.7,0,1.2,0,1.5,0.1c0.5,0.1,0.9,0.3,1.3,0.6c0.5,0.4,0.8,0.9,1,1.5
		c0.2,0.6,0.3,1.3,0.3,2c0,0.7-0.1,1.2-0.2,1.7s-0.3,0.9-0.6,1.3s-0.5,0.6-0.8,0.8s-0.6,0.3-1,0.4c-0.4,0.1-0.9,0.1-1.4,0.1
		L296.8,142.4L296.8,142.4z M297.9,141.4h1.8c0.6,0,1-0.1,1.3-0.2c0.3-0.1,0.6-0.3,0.8-0.4c0.3-0.3,0.5-0.6,0.6-1.1s0.2-1,0.2-1.7
		c0-0.9-0.1-1.6-0.4-2.1c-0.3-0.5-0.7-0.8-1.1-1c-0.3-0.1-0.8-0.2-1.5-0.2h-1.8L297.9,141.4L297.9,141.4z"/>
	<path fill="#EC008C" d="M305.6,142.4v-8.6h1.1v8.6H305.6z"/>
	<path fill="#EC008C" d="M308.4,139.7l1.1-0.1c0.1,0.4,0.2,0.8,0.4,1.1s0.5,0.5,0.9,0.7c0.4,0.2,0.8,0.3,1.3,0.3
		c0.4,0,0.8-0.1,1.1-0.2c0.3-0.1,0.6-0.3,0.7-0.5c0.2-0.2,0.2-0.5,0.2-0.7c0-0.3-0.1-0.5-0.2-0.7s-0.4-0.4-0.8-0.5
		c-0.2-0.1-0.7-0.2-1.5-0.4c-0.8-0.2-1.3-0.4-1.7-0.5c-0.4-0.2-0.7-0.5-0.9-0.8s-0.3-0.7-0.3-1.1c0-0.4,0.1-0.8,0.4-1.2
		s0.6-0.7,1.1-0.9c0.5-0.2,1-0.3,1.6-0.3c0.6,0,1.2,0.1,1.7,0.3s0.9,0.5,1.1,0.9s0.4,0.9,0.4,1.4l-1.1,0.1c-0.1-0.5-0.3-1-0.6-1.2
		c-0.3-0.3-0.8-0.4-1.5-0.4c-0.7,0-1.2,0.1-1.5,0.4s-0.5,0.6-0.5,0.9c0,0.3,0.1,0.6,0.3,0.8c0.2,0.2,0.8,0.4,1.7,0.6
		s1.6,0.4,1.9,0.5c0.5,0.2,0.9,0.5,1.1,0.9s0.4,0.8,0.4,1.2c0,0.5-0.1,0.9-0.4,1.3c-0.3,0.4-0.6,0.7-1.1,0.9s-1,0.3-1.7,0.3
		c-0.8,0-1.4-0.1-2-0.3c-0.5-0.2-0.9-0.6-1.2-1S308.4,140.2,308.4,139.7z"/>
	<path fill="#EC008C" d="M319,142.4v-7.6h-2.8v-1h6.8v1h-2.8v7.6H319z"/>
	<path fill="#EC008C" d="M328.9,144.9c-0.6-0.7-1.1-1.6-1.5-2.6c-0.4-1-0.6-2-0.6-3.1c0-0.9,0.1-1.8,0.5-2.7c0.4-1,0.9-2,1.6-3h0.8
		c-0.5,0.8-0.8,1.4-0.9,1.7c-0.2,0.5-0.4,1.1-0.6,1.7c-0.2,0.7-0.3,1.5-0.3,2.2c0,1.9,0.6,3.8,1.8,5.6H328.9z"/>
	<path fill="#EC008C" d="M334.3,142.4h-1.1v-6.7c-0.3,0.2-0.6,0.5-1,0.7s-0.8,0.4-1.1,0.5v-1c0.6-0.3,1.1-0.6,1.5-1
		c0.4-0.4,0.8-0.8,0.9-1.1h0.7L334.3,142.4L334.3,142.4z"/>
	<path fill="#EC008C" d="M337.8,144.9h-0.8c1.2-1.9,1.8-3.8,1.8-5.6c0-0.7-0.1-1.5-0.3-2.2c-0.1-0.6-0.3-1.1-0.6-1.7
		c-0.2-0.4-0.5-0.9-0.9-1.8h0.8c0.7,1,1.3,2,1.6,3c0.3,0.9,0.5,1.7,0.5,2.7c0,1.1-0.2,2.1-0.6,3.1S338.4,144.2,337.8,144.9z"/>
</g>
<g>
	<path fill="#EC008C" d="M531.7,133.8h1.1v5c0,0.9-0.1,1.5-0.3,2.1c-0.2,0.5-0.5,0.9-1.1,1.2c-0.5,0.3-1.2,0.5-2,0.5
		c-0.8,0-1.5-0.1-2-0.4c-0.5-0.3-0.9-0.7-1.1-1.2c-0.2-0.5-0.3-1.2-0.3-2.2v-5h1.1v5c0,0.7,0.1,1.3,0.2,1.6s0.4,0.6,0.7,0.8
		c0.3,0.2,0.8,0.3,1.2,0.3c0.8,0,1.4-0.2,1.8-0.6c0.4-0.4,0.5-1.1,0.5-2.2L531.7,133.8L531.7,133.8z"/>
	<path fill="#EC008C" d="M534.3,139.7l1.1-0.1c0.1,0.4,0.2,0.8,0.4,1.1c0.2,0.3,0.5,0.5,0.9,0.7c0.4,0.2,0.8,0.3,1.3,0.3
		c0.4,0,0.8-0.1,1.1-0.2c0.3-0.1,0.6-0.3,0.7-0.5c0.2-0.2,0.2-0.5,0.2-0.7c0-0.3-0.1-0.5-0.2-0.7s-0.4-0.4-0.8-0.5
		c-0.2-0.1-0.7-0.2-1.5-0.4c-0.8-0.2-1.3-0.4-1.7-0.5c-0.4-0.2-0.7-0.5-0.9-0.8s-0.3-0.7-0.3-1.1c0-0.4,0.1-0.8,0.4-1.2
		s0.6-0.7,1.1-0.9c0.5-0.2,1-0.3,1.6-0.3c0.6,0,1.2,0.1,1.7,0.3c0.5,0.2,0.9,0.5,1.1,0.9s0.4,0.9,0.4,1.4l-1.1,0.1
		c-0.1-0.5-0.3-1-0.6-1.2c-0.3-0.3-0.8-0.4-1.5-0.4c-0.7,0-1.2,0.1-1.5,0.4c-0.3,0.3-0.5,0.6-0.5,0.9c0,0.3,0.1,0.6,0.3,0.8
		c0.2,0.2,0.8,0.4,1.7,0.6s1.6,0.4,1.9,0.5c0.5,0.2,0.9,0.5,1.1,0.9c0.2,0.4,0.4,0.8,0.4,1.2c0,0.5-0.1,0.9-0.4,1.3
		c-0.3,0.4-0.6,0.7-1.1,0.9c-0.5,0.2-1,0.3-1.7,0.3c-0.8,0-1.4-0.1-2-0.3c-0.5-0.2-0.9-0.6-1.2-1S534.4,140.2,534.3,139.7z"/>
	<path fill="#EC008C" d="M542.7,142.4v-8.6h3.2c0.7,0,1.2,0.1,1.6,0.3c0.4,0.2,0.7,0.4,0.9,0.8s0.3,0.7,0.3,1.1c0,0.4-0.1,0.7-0.3,1
		c-0.2,0.3-0.5,0.6-0.9,0.8c0.5,0.2,0.9,0.4,1.2,0.8s0.4,0.8,0.4,1.3c0,0.4-0.1,0.8-0.3,1.1c-0.2,0.3-0.4,0.6-0.6,0.8
		c-0.3,0.2-0.6,0.3-0.9,0.4c-0.4,0.1-0.8,0.1-1.4,0.1L542.7,142.4L542.7,142.4z M543.8,137.4h1.9c0.5,0,0.9,0,1.1-0.1
		c0.3-0.1,0.5-0.2,0.7-0.4c0.1-0.2,0.2-0.4,0.2-0.8c0-0.3-0.1-0.5-0.2-0.8c-0.1-0.2-0.3-0.4-0.6-0.4c-0.3-0.1-0.7-0.1-1.3-0.1h-1.7
		L543.8,137.4L543.8,137.4z M543.8,141.4h2.1c0.4,0,0.6,0,0.8,0c0.3,0,0.5-0.1,0.7-0.2c0.2-0.1,0.3-0.3,0.4-0.5
		c0.1-0.2,0.2-0.4,0.2-0.7c0-0.3-0.1-0.6-0.2-0.8c-0.2-0.2-0.4-0.4-0.7-0.5c-0.3-0.1-0.7-0.1-1.3-0.1h-2L543.8,141.4L543.8,141.4z"
		/>
	<path fill="#EC008C" d="M556,144.9c-0.6-0.7-1.1-1.6-1.5-2.6c-0.4-1-0.6-2-0.6-3.1c0-0.9,0.2-1.8,0.5-2.7c0.4-1,0.9-2,1.6-3h0.8
		c-0.5,0.8-0.8,1.4-0.9,1.7c-0.2,0.5-0.4,1.1-0.6,1.7c-0.2,0.7-0.3,1.5-0.3,2.2c0,1.9,0.6,3.8,1.8,5.6H556z"/>
	<path fill="#EC008C" d="M557.6,140.2l1.1-0.1c0.1,0.5,0.3,0.9,0.6,1.2c0.3,0.3,0.7,0.4,1.1,0.4c0.5,0,0.9-0.2,1.3-0.6
		s0.5-0.9,0.5-1.5c0-0.6-0.2-1.1-0.5-1.4c-0.3-0.3-0.8-0.5-1.3-0.5c-0.3,0-0.6,0.1-0.9,0.2c-0.3,0.2-0.5,0.4-0.6,0.6l-1-0.1l0.8-4.4
		h4.3v1h-3.4l-0.5,2.3c0.5-0.4,1.1-0.5,1.6-0.5c0.8,0,1.4,0.3,1.9,0.8c0.5,0.5,0.8,1.2,0.8,2c0,0.8-0.2,1.4-0.7,2
		c-0.6,0.7-1.3,1-2.3,1c-0.8,0-1.4-0.2-1.9-0.7S557.7,140.9,557.6,140.2z"/>
	<path fill="#EC008C" d="M565.3,144.9h-0.8c1.2-1.9,1.8-3.8,1.8-5.6c0-0.7-0.1-1.5-0.3-2.2c-0.1-0.6-0.3-1.1-0.6-1.7
		c-0.2-0.4-0.5-0.9-0.9-1.8h0.8c0.7,1,1.3,2,1.6,3c0.3,0.9,0.5,1.7,0.5,2.7c0,1.1-0.2,2.1-0.6,3.1S565.9,144.2,565.3,144.9z"/>
</g>
<g>
	<path fill="#EC008C" d="M296.4,434.5l1.1-0.1c0.1,0.4,0.2,0.8,0.4,1.1s0.5,0.5,0.9,0.7s0.8,0.3,1.3,0.3c0.4,0,0.8-0.1,1.1-0.2
		s0.6-0.3,0.7-0.5s0.2-0.5,0.2-0.7c0-0.3-0.1-0.5-0.2-0.7s-0.4-0.4-0.8-0.5c-0.2-0.1-0.7-0.2-1.5-0.4s-1.3-0.4-1.7-0.5
		c-0.4-0.2-0.7-0.5-0.9-0.8s-0.3-0.7-0.3-1.1c0-0.4,0.1-0.8,0.4-1.2c0.2-0.4,0.6-0.7,1.1-0.9s1-0.3,1.6-0.3c0.6,0,1.2,0.1,1.7,0.3
		s0.9,0.5,1.1,0.9s0.4,0.9,0.4,1.4l-1.1,0.1c-0.1-0.5-0.3-1-0.6-1.2s-0.8-0.4-1.5-0.4c-0.7,0-1.2,0.1-1.5,0.4s-0.5,0.6-0.5,0.9
		c0,0.3,0.1,0.6,0.3,0.8c0.2,0.2,0.8,0.4,1.7,0.6s1.6,0.4,1.9,0.5c0.5,0.2,0.9,0.5,1.1,0.9s0.4,0.8,0.4,1.2c0,0.5-0.1,0.9-0.4,1.3
		s-0.6,0.7-1.1,0.9s-1,0.3-1.7,0.3c-0.8,0-1.4-0.1-2-0.3s-0.9-0.6-1.2-1S296.4,435,296.4,434.5z"/>
	<path fill="#EC008C" d="M304.4,433c0-1.4,0.4-2.5,1.1-3.3s1.8-1.2,3-1.2c0.8,0,1.5,0.2,2.1,0.6s1.1,0.9,1.5,1.6s0.5,1.4,0.5,2.3
		c0,0.9-0.2,1.6-0.5,2.3s-0.9,1.2-1.5,1.6s-1.3,0.5-2.1,0.5c-0.8,0-1.5-0.2-2.2-0.6s-1.1-0.9-1.4-1.6S304.4,433.8,304.4,433z
		 M305.6,433.1c0,1,0.3,1.9,0.8,2.4s1.3,0.9,2.1,0.9c0.9,0,1.6-0.3,2.1-0.9s0.8-1.5,0.8-2.6c0-0.7-0.1-1.3-0.4-1.8s-0.6-0.9-1-1.2
		s-1-0.4-1.5-0.4c-0.8,0-1.5,0.3-2.1,0.8S305.6,431.8,305.6,433.1z"/>
	<path fill="#EC008C" d="M314.1,437.2v-8.6h1.1v7.6h4.2v1H314.1z"/>
	<path fill="#EC008C" d="M321,437.2v-8.6h1.1v8.6H321z"/>
	<path fill="#EC008C" d="M324.1,437.2v-8.6h3c0.7,0,1.2,0,1.5,0.1c0.5,0.1,0.9,0.3,1.3,0.6c0.5,0.4,0.8,0.9,1,1.5s0.3,1.3,0.3,2
		c0,0.7-0.1,1.2-0.2,1.7s-0.3,0.9-0.6,1.3s-0.5,0.6-0.8,0.8s-0.6,0.3-1,0.4s-0.9,0.1-1.4,0.1L324.1,437.2L324.1,437.2z M325.3,436.2
		h1.8c0.6,0,1-0.1,1.3-0.2s0.6-0.3,0.8-0.4c0.3-0.3,0.5-0.6,0.6-1.1s0.2-1,0.2-1.7c0-0.9-0.1-1.6-0.4-2.1s-0.7-0.8-1.1-1
		c-0.3-0.1-0.8-0.2-1.5-0.2h-1.8L325.3,436.2L325.3,436.2z"/>
	<path fill="#EC008C" d="M338,439.7c-0.6-0.7-1.1-1.6-1.5-2.6s-0.6-2-0.6-3.1c0-0.9,0.1-1.8,0.5-2.7c0.4-1,0.9-2,1.6-3h0.8
		c-0.5,0.8-0.8,1.4-0.9,1.7c-0.2,0.5-0.4,1.1-0.6,1.7c-0.2,0.7-0.3,1.5-0.3,2.2c0,1.9,0.6,3.8,1.8,5.6H338z"/>
	<path fill="#EC008C" d="M345.2,436.2v1h-5.7c0-0.3,0-0.5,0.1-0.7c0.1-0.4,0.4-0.8,0.7-1.1s0.8-0.8,1.4-1.3c0.9-0.8,1.6-1.4,1.9-1.8
		s0.5-0.9,0.5-1.3c0-0.4-0.1-0.8-0.4-1.1s-0.7-0.4-1.2-0.4c-0.5,0-0.9,0.2-1.2,0.5s-0.5,0.7-0.5,1.3l-1.1-0.1
		c0.1-0.8,0.4-1.4,0.8-1.8s1.1-0.6,2-0.6c0.8,0,1.5,0.2,2,0.7s0.7,1,0.7,1.7c0,0.3-0.1,0.7-0.2,1s-0.4,0.7-0.7,1s-0.9,0.9-1.6,1.5
		c-0.6,0.5-1,0.9-1.2,1.1s-0.3,0.4-0.4,0.6L345.2,436.2L345.2,436.2z"/>
	<path fill="#EC008C" d="M347.4,439.7h-0.8c1.2-1.9,1.8-3.8,1.8-5.6c0-0.7-0.1-1.5-0.3-2.2c-0.1-0.6-0.3-1.1-0.6-1.7
		c-0.2-0.4-0.5-0.9-0.9-1.8h0.8c0.7,1,1.3,2,1.6,3c0.3,0.9,0.5,1.7,0.5,2.7c0,1.1-0.2,2.1-0.6,3.1S347.9,439,347.4,439.7z"/>
</g>
<g>
	<path fill="#EC008C" d="M58,437.2v-7.6h-2.8v-1H62v1h-2.8v7.6H58z"/>
	<path fill="#EC008C" d="M63.2,437.2v-8.6h6.2v1h-5.1v2.6h4.8v1h-4.8v2.9h5.3v1L63.2,437.2L63.2,437.2z"/>
	<path fill="#EC008C" d="M71.2,437.2v-8.6H75c0.8,0,1.3,0.1,1.7,0.2c0.4,0.2,0.7,0.4,1,0.8c0.2,0.4,0.4,0.8,0.4,1.3
		c0,0.6-0.2,1.1-0.6,1.5c-0.4,0.4-1,0.7-1.8,0.8c0.3,0.1,0.5,0.3,0.7,0.4c0.3,0.3,0.6,0.7,0.9,1.1l1.5,2.3h-1.4l-1.1-1.8
		c-0.3-0.5-0.6-0.9-0.8-1.2s-0.4-0.5-0.6-0.6s-0.3-0.2-0.5-0.2c-0.1,0-0.3,0-0.6,0h-1.3v3.8L71.2,437.2L71.2,437.2z M72.3,432.4h2.4
		c0.5,0,0.9-0.1,1.2-0.2s0.5-0.3,0.7-0.5s0.2-0.5,0.2-0.8c0-0.4-0.1-0.7-0.4-1c-0.3-0.3-0.8-0.4-1.4-0.4h-2.7L72.3,432.4L72.3,432.4
		z"/>
	<path fill="#EC008C" d="M79.8,437.2v-8.6h1.7l2,6.1c0.2,0.6,0.3,1,0.4,1.3c0.1-0.3,0.3-0.8,0.5-1.4l2.1-6H88v8.6h-1.1V430l-2.5,7.2
		h-1l-2.5-7.3v7.3L79.8,437.2L79.8,437.2z"/>
	<path fill="#EC008C" d="M95,439.7c-0.6-0.7-1.1-1.6-1.5-2.6s-0.6-2-0.6-3.1c0-0.9,0.1-1.8,0.5-2.7c0.4-1,0.9-2,1.6-3h0.8
		c-0.5,0.8-0.8,1.4-0.9,1.7c-0.2,0.5-0.4,1.1-0.6,1.7c-0.2,0.7-0.3,1.5-0.3,2.2c0,1.9,0.6,3.8,1.8,5.6H95z"/>
	<path fill="#EC008C" d="M96.7,435l1.1-0.1c0.1,0.6,0.3,1,0.6,1.3s0.6,0.4,1.1,0.4c0.5,0,0.9-0.2,1.3-0.5s0.5-0.8,0.5-1.3
		c0-0.5-0.2-0.9-0.5-1.2s-0.7-0.5-1.2-0.5c-0.2,0-0.4,0-0.7,0.1l0.1-0.9c0.1,0,0.1,0,0.2,0c0.4,0,0.9-0.1,1.2-0.4
		c0.4-0.2,0.5-0.6,0.5-1.1c0-0.4-0.1-0.7-0.4-1s-0.6-0.4-1-0.4c-0.4,0-0.8,0.1-1,0.4s-0.4,0.6-0.5,1.2l-1.1-0.2
		c0.1-0.7,0.4-1.3,0.9-1.6s1-0.6,1.7-0.6c0.5,0,0.9,0.1,1.3,0.3c0.4,0.2,0.7,0.5,0.9,0.8s0.3,0.7,0.3,1.1c0,0.4-0.1,0.7-0.3,1
		c-0.2,0.3-0.5,0.5-0.9,0.7c0.5,0.1,0.9,0.4,1.2,0.7s0.4,0.8,0.4,1.4c0,0.8-0.3,1.4-0.8,1.9c-0.5,0.5-1.2,0.8-2.1,0.8
		c-0.8,0-1.4-0.2-1.9-0.7S96.8,435.7,96.7,435z"/>
	<path fill="#EC008C" d="M104.4,439.7h-0.8c1.2-1.9,1.8-3.8,1.8-5.6c0-0.7-0.1-1.5-0.3-2.2c-0.1-0.6-0.3-1.1-0.6-1.7
		c-0.2-0.4-0.5-0.9-0.9-1.8h0.8c0.7,1,1.3,2,1.6,3c0.3,0.9,0.5,1.7,0.5,2.7c0,1.1-0.2,2.1-0.6,3.1C105.5,438.2,105,439,104.4,439.7z
		"/>
</g>
<g>
	<path fill="#EC008C" d="M55.8,142.4v-8.6H59c0.7,0,1.2,0.1,1.6,0.3c0.4,0.2,0.7,0.4,0.9,0.8s0.3,0.7,0.3,1.1c0,0.4-0.1,0.7-0.3,1
		c-0.2,0.3-0.5,0.6-0.9,0.8c0.5,0.2,0.9,0.4,1.2,0.8s0.4,0.8,0.4,1.3c0,0.4-0.1,0.8-0.3,1.1c-0.2,0.3-0.4,0.6-0.6,0.8
		c-0.3,0.2-0.6,0.3-0.9,0.4c-0.4,0.1-0.8,0.1-1.4,0.1L55.8,142.4L55.8,142.4z M56.9,137.4h1.9c0.5,0,0.9,0,1.1-0.1
		c0.3-0.1,0.5-0.2,0.7-0.4c0.1-0.2,0.2-0.4,0.2-0.8c0-0.3-0.1-0.5-0.2-0.8c-0.1-0.2-0.3-0.4-0.6-0.4c-0.3-0.1-0.7-0.1-1.3-0.1h-1.7
		L56.9,137.4L56.9,137.4z M56.9,141.4h2.1c0.4,0,0.6,0,0.8,0c0.3,0,0.5-0.1,0.7-0.2c0.2-0.1,0.3-0.3,0.4-0.5
		c0.1-0.2,0.2-0.4,0.2-0.7c0-0.3-0.1-0.6-0.2-0.8c-0.2-0.2-0.4-0.4-0.7-0.5c-0.3-0.1-0.7-0.1-1.3-0.1h-2
		C56.9,138.5,56.9,141.4,56.9,141.4z"/>
	<path fill="#EC008C" d="M63.5,138.2c0-1.4,0.4-2.5,1.1-3.3c0.8-0.8,1.8-1.2,3-1.2c0.8,0,1.5,0.2,2.1,0.6s1.1,0.9,1.5,1.6
		c0.3,0.7,0.5,1.4,0.5,2.3c0,0.9-0.2,1.7-0.5,2.3c-0.4,0.7-0.8,1.2-1.5,1.6c-0.6,0.4-1.3,0.5-2.1,0.5c-0.8,0-1.5-0.2-2.2-0.6
		c-0.6-0.4-1.1-0.9-1.4-1.6C63.7,139.7,63.5,139,63.5,138.2z M64.7,138.3c0,1,0.3,1.9,0.8,2.4s1.3,0.9,2.1,0.9
		c0.9,0,1.6-0.3,2.1-0.9s0.8-1.5,0.8-2.6c0-0.7-0.1-1.3-0.4-1.8c-0.2-0.5-0.6-0.9-1-1.2c-0.5-0.3-1-0.4-1.5-0.4
		c-0.8,0-1.5,0.3-2.1,0.8C65,136,64.7,137,64.7,138.3z"/>
	<path fill="#EC008C" d="M75.4,142.4v-7.6h-2.8v-1h6.8v1h-2.8v7.6H75.4z"/>
	<path fill="#EC008C" d="M85.7,144.9c-0.6-0.7-1.1-1.6-1.5-2.6c-0.4-1-0.6-2-0.6-3.1c0-0.9,0.2-1.8,0.5-2.7c0.4-1,0.9-2,1.6-3h0.8
		c-0.5,0.8-0.8,1.4-0.9,1.7c-0.2,0.5-0.4,1.1-0.6,1.7c-0.2,0.7-0.3,1.5-0.3,2.2c0,1.9,0.6,3.8,1.8,5.6H85.7z"/>
	<path fill="#EC008C" d="M91.4,142.4h-1.1v-6.7c-0.3,0.2-0.6,0.5-1,0.7s-0.8,0.4-1.1,0.5v-1c0.6-0.3,1.1-0.6,1.5-1
		c0.4-0.4,0.8-0.8,0.9-1.1h0.7L91.4,142.4L91.4,142.4z"/>
	<path fill="#EC008C" d="M95.1,144.9h-0.8c1.2-1.9,1.8-3.8,1.8-5.6c0-0.7-0.1-1.5-0.3-2.2c-0.1-0.6-0.3-1.1-0.6-1.7
		c-0.2-0.4-0.5-0.9-0.9-1.8h0.8c0.7,1,1.3,2,1.6,3c0.3,0.9,0.5,1.7,0.5,2.7c0,1.1-0.2,2.1-0.6,3.1S95.6,144.2,95.1,144.9z"/>
</g>
<path d="M234.9,152.1H59.2c-2.3,0-4.3,1.9-4.3,4.3v221.1c0,2.3,1.9,4.3,4.3,4.3h175.7c2.3,0,4.3-1.9,4.3-4.3V156.4
	C239.2,154,237.3,152.1,234.9,152.1z M64.4,376.8c-2.5,0-4.5-2-4.5-4.5s2-4.5,4.5-4.5c2.5,0,4.5,2,4.5,4.5
	C68.9,374.7,66.9,376.8,64.4,376.8z M64.4,166.2c-2.5,0-4.5-2-4.5-4.5c0-2.5,2-4.5,4.5-4.5c2.5,0,4.5,2,4.5,4.5
	C68.9,164.1,66.9,166.2,64.4,166.2z M78.6,215.5c-2.5,0-4.5-2-4.5-4.5c0-2.5,2-4.5,4.5-4.5c2.5,0,4.5,2,4.5,4.5
	C83.2,213.4,81.1,215.5,78.6,215.5z M92.9,362.7c-2.5,0-4.5-2-4.5-4.5c0-2.5,2-4.5,4.5-4.5c2.5,0,4.5,2,4.5,4.5
	C97.4,360.7,95.4,362.7,92.9,362.7z M172.2,362.7c-2.5,0-4.5-2-4.5-4.5c0-2.5,2-4.5,4.5-4.5c2.5,0,4.5,2,4.5,4.5
	C176.7,360.7,174.7,362.7,172.2,362.7z M215.4,218.8c-2.5,0-4.5-2-4.5-4.5c0-2.5,2-4.5,4.5-4.5c2.5,0,4.5,2,4.5,4.5
	C220,216.8,217.9,218.8,215.4,218.8z M229.7,376.8c-2.5,0-4.5-2-4.5-4.5s2-4.5,4.5-4.5c2.5,0,4.5,2,4.5,4.5
	C234.2,374.7,232.2,376.8,229.7,376.8z M229.7,166.2c-2.5,0-4.5-2-4.5-4.5c0-2.5,2-4.5,4.5-4.5c2.5,0,4.5,2,4.5,4.5
	C234.2,164.1,232.2,166.2,229.7,166.2z"/>
<path d="M475.8,152.1h-32.2c-2.3,0-4.3,1.9-4.3,4.3v7.1c0,2.2,1.6,3.9,3.7,4.2h18.6c0.1,0,0.2,0,0.2,0c0.1,0,0.2,0,0.2,0h0
	c0,0,0.1,0,0.1,0c0.1,0,0.1,0,0.2,0c0.1,0,0.1,0,0.2,0c0.1,0,0.2,0.1,0.2,0.1c0.1,0,0.2,0.1,0.2,0.1c0.3,0.2,0.6,0.4,0.8,0.7
	c0.1,0.1,0.1,0.1,0.2,0.2c0,0,0.1,0.1,0.1,0.1c0,0.1,0.1,0.1,0.1,0.2c0.1,0.1,0.1,0.3,0.2,0.4c0,0.1,0,0.2,0.1,0.2
	c0,0.2,0.1,0.4,0.1,0.6v33.8c0,0.2,0,0.3,0,0.5c0,0.2,0,0.3,0,0.5c-0.2,0.9-1.1,1.7-2.1,1.7v0h-9.2c-2.4,0-4.3,1.9-4.3,4.3v6.2
	c0,2.3,1.9,4.3,4.3,4.3h9.2v0c1,0,1.9,0.7,2.1,1.7c0,0.2,0,0.3,0,0.5c0,0.2,0,0.3,0,0.5v139c0,1.6-1.3,2.8-2.8,2.8h-36.5
	c-0.6,0-1.1-0.2-1.5-0.6c-0.4-0.4-0.6-0.9-0.6-1.5v-11.8c0-2.4-1.9-4.3-4.3-4.3h-11.3c-2.4,0-4.3,1.9-4.3,4.3V364c0,0,0,0,0,0
	c0,1.2-1,2.1-2.1,2.1h-55.2c-1.2,0-2.1-0.9-2.1-2.1c0,0,0,0,0,0v-11.8c0-2.4-1.9-4.3-4.3-4.3h-11.3c-2.3,0-4.3,1.9-4.3,4.3V364
	c0,1.2-0.9,2.1-2.1,2.1h-7.5c-0.8,0-1.5-0.3-2-0.8c-0.5-0.5-0.8-1.2-0.8-2V220.5c0-0.1,0-0.1,0-0.2c0.1-1.1,1-1.9,2.1-1.9v-0.1h9.1
	c2.3,0,4.3-1.9,4.3-4.3v-6.2c0-2.4-1.9-4.3-4.3-4.3h-9.1c-1.1,0-2-0.8-2.1-1.9c0-0.1,0-0.1,0-0.2v-30.9c0-0.8,0.3-1.5,0.8-2
	c0.5-0.5,1.2-0.8,2-0.8h84.5c2.1-0.3,3.7-2,3.7-4.2v-7.1c0-2.4-1.9-4.3-4.3-4.3h-98.2c-2.3,0-4.3,1.9-4.3,4.3v221.1
	c0,2.4,1.9,4.3,4.3,4.3h175.7c2.4,0,4.3-1.9,4.3-4.3V156.4C480.1,154,478.2,152.1,475.8,152.1z M456.4,218.8c-2.5,0-4.5-2-4.5-4.5
	c0-2.5,2-4.5,4.5-4.5c2.5,0,4.5,2,4.5,4.5C460.9,216.8,458.9,218.8,456.4,218.8z M319.6,206.4c2.5,0,4.5,2,4.5,4.5
	c0,2.5-2,4.5-4.5,4.5s-4.5-2-4.5-4.5C315,208.4,317.1,206.4,319.6,206.4z M305.3,157.1c2.5,0,4.5,2,4.5,4.5c0,2.5-2,4.5-4.5,4.5
	s-4.5-2-4.5-4.5C300.8,159.1,302.8,157.1,305.3,157.1z M308.6,375.4c-0.8,0.8-2,1.3-3.2,1.3s-2.4-0.5-3.2-1.3
	c-0.8-0.8-1.3-2-1.3-3.2c0-2.5,2-4.5,4.5-4.5s4.5,2,4.5,4.5C309.9,373.5,309.4,374.6,308.6,375.4z M333.8,353.6c2.5,0,4.5,2,4.5,4.5
	c0,2.5-2,4.5-4.5,4.5s-4.5-2-4.5-4.5C329.3,355.6,331.3,353.6,333.8,353.6z M413.1,353.6c2.5,0,4.5,2,4.5,4.5c0,2.5-2,4.5-4.5,4.5
	c-2.5,0-4.5-2-4.5-4.5C408.6,355.6,410.6,353.6,413.1,353.6z M466.5,159.7c0,0,0-0.1,0-0.1c0-0.1,0.1-0.2,0.2-0.3
	c0.3-0.4,0.6-0.8,1-1.1c0.1-0.1,0.2-0.2,0.4-0.3c0.1-0.1,0.3-0.2,0.4-0.2c0.2-0.1,0.4-0.2,0.6-0.3c0.1,0,0.2-0.1,0.3-0.1
	c0.2,0,0.4-0.1,0.5-0.1c0.1,0,0.2,0,0.3,0c0.1,0,0.3,0,0.4,0c1.3,0,2.4,0.5,3.2,1.3c0.8,0.8,1.3,2,1.3,3.2c0,1.3-0.5,2.4-1.3,3.2
	c-0.8,0.8-2,1.3-3.2,1.3c-1.1,0-2-0.4-2.8-1c-0.1-0.1-0.2-0.2-0.3-0.3c-0.1-0.1-0.2-0.2-0.2-0.3c-0.3-0.4-0.6-0.8-0.8-1.3
	c-0.2-0.5-0.4-1.1-0.4-1.8C466.1,160.9,466.2,160.3,466.5,159.7z M466.4,373.9c-0.2-0.5-0.3-1.1-0.3-1.7c0-0.6,0.1-1.2,0.4-1.8
	c0.7-1.6,2.3-2.8,4.2-2.8c1.3,0,2.4,0.5,3.2,1.3c0.8,0.8,1.3,2,1.3,3.2c0,2.5-2,4.5-4.5,4.5c-1.3,0-2.4-0.5-3.2-1.3
	C467,375,466.6,374.5,466.4,373.9z"/>
<path d="M234.9,446.9H59.2c-2.4,0-4.3,1.9-4.3,4.3v221.1c0,2.3,1.9,4.3,4.3,4.3h60.9c2.2,0,4-1.7,4.2-3.9c0-0.1,0-0.3,0-0.4v-7.1
	c0-2.3-1.8-4.1-4-4.2h-47c-1.6,0-2.8-1.3-2.8-2.8V465.3c0-1.6,1.3-2.8,2.8-2.8h147.4c1.6,0,2.8,1.3,2.8,2.8v192.8
	c0,1.6-1.3,2.8-2.8,2.8h-32.8c-2.3,0.1-4,2-4,4.2v7.1c0,0.2,0,0.3,0,0.4c0.2,2.2,2,3.9,4.2,3.9h46.8c2.3,0,4.3-1.9,4.3-4.3V451.2
	C239.2,448.8,237.3,446.9,234.9,446.9z M64.4,671.6c-2.5,0-4.5-2-4.5-4.5c0-2.5,2-4.5,4.5-4.5c2.5,0,4.5,2,4.5,4.5
	C68.9,669.5,66.9,671.6,64.4,671.6z M64.4,461c-2.5,0-4.5-2-4.5-4.5c0-2.5,2-4.5,4.5-4.5c2.5,0,4.5,2,4.5,4.5
	C68.9,458.9,66.9,461,64.4,461z M229.7,671.6c-2.5,0-4.5-2-4.5-4.5c0-2.5,2-4.5,4.5-4.5s4.5,2,4.5,4.5
	C234.2,669.5,232.2,671.6,229.7,671.6z M229.7,461c-2.5,0-4.5-2-4.5-4.5c0-2.5,2-4.5,4.5-4.5s4.5,2,4.5,4.5
	C234.2,458.9,232.2,461,229.7,461z"/>
<path d="M475.9,446.9H300.1c-2.3,0-4.3,1.9-4.3,4.3v221.1c0,2.3,1.9,4.3,4.3,4.3h175.7c2.4,0,4.3-1.9,4.3-4.3V451.2
	C480.1,448.8,478.2,446.9,475.9,446.9z M305.4,671.6c-2.5,0-4.5-2-4.5-4.5s2-4.5,4.5-4.5c2.5,0,4.5,2,4.5,4.5
	S307.9,671.6,305.4,671.6z M305.4,461c-2.5,0-4.5-2-4.5-4.5s2-4.5,4.5-4.5c2.5,0,4.5,2,4.5,4.5S307.9,461,305.4,461z M464.5,658.1
	c0,1.6-1.3,2.8-2.8,2.8H314.3c-1.6,0-2.8-1.3-2.8-2.8V465.3c0-1.6,1.3-2.8,2.8-2.8h147.4c1.6,0,2.8,1.3,2.8,2.8V658.1z M470.6,671.6
	c-2.5,0-4.5-2-4.5-4.5s2-4.5,4.5-4.5c2.5,0,4.5,2,4.5,4.5S473.1,671.6,470.6,671.6z M470.6,461c-2.5,0-4.5-2-4.5-4.5s2-4.5,4.5-4.5
	c2.5,0,4.5,2,4.5,4.5S473.1,461,470.6,461z"/>
<line fill="none" stroke="#EC008C" stroke-miterlimit="10" x1="470.7" y1="446.9" x2="505.7" y2="446.9"/>
<line fill="none" stroke="#EC008C" stroke-miterlimit="10" x1="470.7" y1="676.5" x2="505.7" y2="676.5"/>
<g>
	<line fill="none" x1="505.7" y1="446.9" x2="505.7" y2="676.5"/>
	<g>
		<line fill="none" stroke="#EC008C" stroke-miterlimit="10" x1="505.7" y1="454" x2="505.7" y2="669.5"/>
		<g>
			<polygon fill="#EC008C" points="505.7,446.9 501.7,456.9 505.7,454.5 509.8,456.9 			"/>
		</g>
		<g>
			<polygon fill="#EC008C" points="505.7,676.5 501.7,666.6 505.7,668.9 509.8,666.6 			"/>
		</g>
	</g>
</g>
<g>
	<path fill="#EC008C" d="M513,560.3c-0.4-0.2-0.8-0.4-1-0.7c-0.2-0.3-0.3-0.7-0.3-1.1c0-0.6,0.2-1.1,0.7-1.6c0.4-0.4,1-0.6,1.8-0.6
		c0.8,0,1.4,0.2,1.8,0.7s0.7,1,0.7,1.6c0,0.4-0.1,0.7-0.3,1c-0.2,0.3-0.5,0.5-1,0.7c0.5,0.2,0.9,0.4,1.2,0.8s0.4,0.8,0.4,1.4
		c0,0.7-0.3,1.4-0.8,1.9s-1.2,0.8-2.1,0.8c-0.8,0-1.5-0.3-2.1-0.8c-0.5-0.5-0.8-1.1-0.8-1.9c0-0.6,0.1-1,0.4-1.4
		C512.1,560.7,512.5,560.4,513,560.3z M512.4,562.5c0,0.3,0.1,0.6,0.2,0.9c0.1,0.3,0.4,0.5,0.6,0.7c0.3,0.2,0.6,0.2,0.9,0.2
		c0.5,0,0.9-0.2,1.2-0.5c0.3-0.3,0.5-0.7,0.5-1.2c0-0.5-0.2-0.9-0.5-1.3c-0.3-0.3-0.8-0.5-1.3-0.5c-0.5,0-0.9,0.2-1.2,0.5
		C512.6,561.5,512.4,562,512.4,562.5z M512.8,558.5c0,0.4,0.1,0.7,0.4,1s0.6,0.4,1,0.4c0.4,0,0.7-0.1,1-0.4c0.3-0.3,0.4-0.6,0.4-0.9
		c0-0.4-0.1-0.7-0.4-1s-0.6-0.4-1-0.4c-0.4,0-0.7,0.1-1,0.4S512.8,558.1,512.8,558.5z"/>
	<path fill="#EC008C" d="M522,564.9h-1.1v-6.7c-0.3,0.2-0.6,0.5-1,0.7s-0.8,0.4-1.1,0.5v-1c0.6-0.3,1.1-0.6,1.5-1
		c0.4-0.4,0.8-0.8,0.9-1.1h0.7V564.9z"/>
	<path fill="#EC008C" d="M528.3,564.9v-6.2h0.9v0.9c0.2-0.3,0.5-0.6,0.8-0.7s0.7-0.3,1.1-0.3c0.5,0,0.8,0.1,1.1,0.3s0.5,0.5,0.6,0.8
		c0.5-0.7,1.1-1.1,1.9-1.1c0.6,0,1.1,0.2,1.4,0.5s0.5,0.9,0.5,1.6v4.3h-1V561c0-0.4,0-0.7-0.1-0.9s-0.2-0.3-0.4-0.4
		c-0.2-0.1-0.4-0.2-0.6-0.2c-0.4,0-0.8,0.1-1.1,0.4s-0.4,0.8-0.4,1.4v3.6H532v-4c0-0.5-0.1-0.8-0.3-1.1s-0.5-0.4-0.8-0.4
		c-0.3,0-0.6,0.1-0.8,0.2s-0.4,0.4-0.5,0.7c-0.1,0.3-0.2,0.7-0.2,1.3v3.2H528.3z"/>
	<path fill="#EC008C" d="M538.3,564.9v-6.2h0.9v0.9c0.2-0.3,0.5-0.6,0.8-0.7c0.3-0.2,0.7-0.3,1.1-0.3c0.5,0,0.8,0.1,1.1,0.3
		c0.3,0.2,0.5,0.5,0.6,0.8c0.5-0.7,1.1-1.1,1.9-1.1c0.6,0,1.1,0.2,1.4,0.5c0.3,0.3,0.5,0.9,0.5,1.6v4.3h-1V561c0-0.4,0-0.7-0.1-0.9
		c-0.1-0.2-0.2-0.3-0.4-0.4s-0.4-0.2-0.6-0.2c-0.4,0-0.8,0.1-1.1,0.4c-0.3,0.3-0.4,0.8-0.4,1.4v3.6H542v-4c0-0.5-0.1-0.8-0.3-1.1
		s-0.5-0.4-0.8-0.4c-0.3,0-0.6,0.1-0.8,0.2c-0.3,0.2-0.4,0.4-0.5,0.7c-0.1,0.3-0.2,0.7-0.2,1.3v3.2H538.3z"/>
</g>
<line fill="none" stroke="#EC008C" stroke-miterlimit="10" x1="480.1" y1="655.4" x2="480.1" y2="690.4"/>
<line fill="none" stroke="#EC008C" stroke-miterlimit="10" x1="295.9" y1="655.4" x2="295.9" y2="690.4"/>
<g>
	<line fill="none" x1="480.1" y1="690.4" x2="295.9" y2="690.4"/>
	<g>
		<line fill="none" stroke="#EC008C" stroke-miterlimit="10" x1="473" y1="690.4" x2="302.9" y2="690.4"/>
		<g>
			<polygon fill="#EC008C" points="480.1,690.4 470.2,686.3 472.5,690.4 470.2,694.4 			"/>
		</g>
		<g>
			<polygon fill="#EC008C" points="295.9,690.4 305.8,686.3 303.4,690.4 305.8,694.4 			"/>
		</g>
	</g>
</g>
<g>
	<path fill="#EC008C" d="M375.6,700l-1,0.1c-0.1-0.4-0.2-0.7-0.4-0.9c-0.3-0.3-0.6-0.5-1.1-0.5c-0.3,0-0.6,0.1-0.9,0.3
		c-0.3,0.2-0.6,0.6-0.8,1.1s-0.3,1.1-0.3,2c0.3-0.4,0.6-0.7,0.9-0.9s0.8-0.3,1.2-0.3c0.7,0,1.3,0.3,1.8,0.8s0.7,1.2,0.7,2
		c0,0.5-0.1,1-0.3,1.5s-0.6,0.8-1,1.1s-0.9,0.4-1.4,0.4c-0.9,0-1.6-0.3-2.1-1s-0.8-1.7-0.8-3.2c0-1.7,0.3-2.9,0.9-3.6
		c0.5-0.7,1.3-1,2.2-1c0.7,0,1.2,0.2,1.7,0.6S375.5,699.3,375.6,700z M371.3,703.7c0,0.4,0.1,0.7,0.2,1s0.4,0.6,0.6,0.8
		s0.6,0.3,0.9,0.3c0.4,0,0.8-0.2,1.1-0.5s0.5-0.8,0.5-1.5c0-0.6-0.2-1.1-0.5-1.4s-0.7-0.5-1.2-0.5c-0.5,0-0.9,0.2-1.2,0.5
		S371.3,703.1,371.3,703.7z"/>
	<path fill="#EC008C" d="M376.8,704.2l1.1-0.1c0.1,0.5,0.3,0.9,0.6,1.2s0.7,0.4,1.1,0.4c0.5,0,0.9-0.2,1.3-0.6s0.5-0.9,0.5-1.5
		c0-0.6-0.2-1.1-0.5-1.4s-0.8-0.5-1.3-0.5c-0.3,0-0.6,0.1-0.9,0.2s-0.5,0.4-0.6,0.6l-1-0.1l0.8-4.4h4.3v1h-3.4l-0.5,2.3
		c0.5-0.4,1.1-0.5,1.6-0.5c0.8,0,1.4,0.3,1.9,0.8s0.8,1.2,0.8,2c0,0.8-0.2,1.4-0.7,2c-0.6,0.7-1.3,1-2.3,1c-0.8,0-1.4-0.2-1.9-0.7
		S376.9,705,376.8,704.2z"/>
	<path fill="#EC008C" d="M387.1,706.5v-6.2h0.9v0.9c0.2-0.3,0.5-0.6,0.8-0.7s0.7-0.3,1.1-0.3c0.5,0,0.8,0.1,1.1,0.3s0.5,0.5,0.6,0.8
		c0.5-0.7,1.1-1.1,1.9-1.1c0.6,0,1.1,0.2,1.4,0.5s0.5,0.9,0.5,1.6v4.3h-1v-3.9c0-0.4,0-0.7-0.1-0.9s-0.2-0.3-0.4-0.4
		s-0.4-0.2-0.6-0.2c-0.4,0-0.8,0.1-1.1,0.4s-0.4,0.8-0.4,1.4v3.6h-1.1v-4c0-0.5-0.1-0.8-0.3-1.1s-0.5-0.4-0.8-0.4
		c-0.3,0-0.6,0.1-0.8,0.2s-0.4,0.4-0.5,0.7s-0.2,0.7-0.2,1.3v3.2L387.1,706.5L387.1,706.5z"/>
	<path fill="#EC008C" d="M397.1,706.5v-6.2h0.9v0.9c0.2-0.3,0.5-0.6,0.8-0.7s0.7-0.3,1.1-0.3c0.5,0,0.8,0.1,1.1,0.3s0.5,0.5,0.6,0.8
		c0.5-0.7,1.1-1.1,1.9-1.1c0.6,0,1.1,0.2,1.4,0.5s0.5,0.9,0.5,1.6v4.3h-1v-3.9c0-0.4,0-0.7-0.1-0.9s-0.2-0.3-0.4-0.4
		s-0.4-0.2-0.6-0.2c-0.4,0-0.8,0.1-1.1,0.4s-0.4,0.8-0.4,1.4v3.6h-1.1v-4c0-0.5-0.1-0.8-0.3-1.1s-0.5-0.4-0.8-0.4
		c-0.3,0-0.6,0.1-0.8,0.2s-0.4,0.4-0.5,0.7s-0.2,0.7-0.2,1.3v3.2L397.1,706.5L397.1,706.5z"/>
</g>
</svg>
